# Blender v2.90.0 OBJ File: 'Implorium_Avatar.blend'
# www.blender.org
mtllib knifeinhead.mtl
o Plane_Plane.002
v 0.392874 2.862784 -0.765383
v 0.392874 2.942545 -0.656175
v 0.392874 2.408528 -0.266150
v 0.392874 2.349193 -0.222813
v 0.392874 2.373268 -0.407859
v 0.392874 2.395229 -0.471224
v 0.392874 2.434637 -0.510700
v 0.392874 2.834693 -0.803843
v 0.392874 2.422220 -0.443612
v 0.381841 2.943772 -0.654068
v 0.381841 2.297734 -0.182227
v 0.381841 2.825811 -0.815578
v 0.381841 2.352128 -0.446847
v 0.381841 2.362337 -0.229411
v 0.381841 2.389736 -0.497085
v 0.381841 2.328218 -0.377856
v 0.381841 2.381516 -0.416783
v 0.370808 2.862784 -0.765383
v 0.370808 2.942545 -0.656175
v 0.370808 2.408528 -0.266150
v 0.370808 2.349193 -0.222813
v 0.370808 2.373268 -0.407859
v 0.370808 2.395229 -0.471224
v 0.370808 2.434637 -0.510700
v 0.370808 2.834693 -0.803843
v 0.370808 2.422220 -0.443612
v 0.397690 2.916709 -0.765505
v 0.381841 2.966023 -0.627170
v 0.381841 2.810724 -0.839804
v 0.418088 2.859400 -0.773720
v 0.418088 2.964408 -0.629944
v 0.418088 2.822417 -0.824355
v 0.345594 2.859400 -0.773720
v 0.345594 2.964408 -0.629944
v 0.345594 2.822417 -0.824355
v 0.397690 2.970561 -0.691773
v 0.387949 2.899652 -0.788859
v 0.381841 2.970765 -0.690931
v 0.381841 2.896522 -0.792583
v 0.365992 2.916709 -0.765505
v 0.365992 2.970561 -0.691773
v 0.375732 2.899652 -0.788859
v 0.418088 2.855879 -0.848794
v 0.381841 2.844185 -0.864243
v 0.418088 2.997869 -0.654383
v 0.381841 2.999485 -0.651609
v 0.418088 2.892861 -0.798159
v 0.345594 2.892861 -0.798159
v 0.345594 2.997869 -0.654383
v 0.345594 2.855879 -0.848794
v 0.387949 3.156410 -0.976385
v 0.381841 3.153280 -0.980109
v 0.397690 3.227318 -0.879299
v 0.381841 3.227522 -0.878457
v 0.397690 3.173467 -0.953031
v 0.365992 3.173467 -0.953031
v 0.365992 3.227318 -0.879299
v 0.375732 3.156410 -0.976385
v 0.403530 3.139721 -1.008836
v 0.381841 3.135437 -1.013931
v 0.403530 3.236758 -0.875974
v 0.381841 3.237037 -0.874822
v 0.403530 3.163063 -0.976876
v 0.360152 3.163063 -0.976876
v 0.360152 3.236758 -0.875974
v 0.360152 3.139721 -1.008836
v 0.403530 3.157140 -1.021558
v 0.381841 3.152857 -1.026654
v 0.403530 3.254178 -0.888696
v 0.381841 3.254457 -0.887545
v 0.403530 3.180483 -0.989599
v 0.360152 3.180483 -0.989599
v 0.360152 3.254178 -0.888696
v 0.360152 3.157140 -1.021558
vt 0.183327 0.420126
vt 0.129502 0.420126
vt 0.178434 0.386191
vt 0.227365 0.378523
vt 0.667750 0.420127
vt 0.667750 0.377837
vt 0.667750 0.540206
vt 0.080570 0.540206
vt 0.015328 0.540206
vt 0.970974 0.087145
vt 0.970696 0.016779
vt 0.980860 0.074346
vt 0.981115 0.138974
vt 0.737152 0.018182
vt 0.604386 0.133420
vt 0.555763 0.126961
vt 0.678208 0.015328
vt 0.970974 0.719956
vt 0.981115 0.720181
vt 0.548899 0.166957
vt 0.504801 0.157763
vt 0.642910 0.724093
vt 0.642928 0.604019
vt 0.665390 0.573721
vt 0.665390 0.731856
vt 0.623337 0.604015
vt 0.623312 0.724090
vt 0.600829 0.731845
vt 0.600885 0.573710
vt 0.495042 0.181253
vt 0.455714 0.164368
vt 0.015552 0.181251
vt 0.015328 0.164920
vt 0.528734 0.788105
vt 0.570174 0.746666
vt 0.558628 0.810464
vt 0.532501 0.859682
vt 0.519944 0.621092
vt 0.570174 0.570862
vt 0.810098 0.183327
vt 0.768495 0.227365
vt 0.776162 0.178433
vt 0.810098 0.129502
vt 0.810098 0.667750
vt 0.767808 0.667750
vt 0.930177 0.667750
vt 0.930177 0.080570
vt 0.930177 0.015328
vt 0.960833 0.140083
vt 0.960833 0.074123
vt 0.970974 0.015328
vt 0.737152 0.344328
vt 0.678207 0.347181
vt 0.555763 0.235546
vt 0.604386 0.229088
vt 0.960852 0.720182
vt 0.504801 0.204744
vt 0.548899 0.195550
vt 0.633133 0.601854
vt 0.633138 0.570862
vt 0.455714 0.198138
vt 0.015328 0.197581
vt 0.445186 0.844577
vt 0.388044 0.848978
vt 0.396088 0.811683
vt 0.419421 0.803833
vt 0.726588 0.660158
vt 0.712497 0.660452
vt 0.712497 0.378131
vt 0.726588 0.377837
vt 0.443027 0.573770
vt 0.489288 0.592573
vt 0.457506 0.627167
vt 0.434575 0.619751
vt 0.344653 0.820170
vt 0.328597 0.745208
vt 0.374116 0.745001
vt 0.377541 0.793543
vt 0.623314 0.766365
vt 0.600877 0.787538
vt 0.633100 0.779413
vt 0.633094 0.804740
vt 0.642892 0.766370
vt 0.665320 0.787552
vt 0.489288 0.772968
vt 0.444196 0.756076
vt 0.388891 0.570862
vt 0.411062 0.617909
vt 0.800009 0.853426
vt 0.805435 0.849109
vt 0.832203 0.914996
vt 0.800005 0.932206
vt 0.814089 0.742354
vt 0.800014 0.741643
vt 0.800015 0.698406
vt 0.832203 0.701242
vt 0.814084 0.823427
vt 0.832195 0.859333
vt 0.785938 0.742353
vt 0.785936 0.823426
vt 0.767823 0.859329
vt 0.767827 0.701240
vt 0.794585 0.849108
vt 0.767808 0.914992
vt 0.868299 0.828305
vt 0.876606 0.797899
vt 0.885451 0.822955
vt 0.887570 0.856359
vt 0.015622 0.651935
vt 0.015622 0.570862
vt 0.297941 0.570862
vt 0.297941 0.651935
vt 0.015622 0.719983
vt 0.015622 0.692886
vt 0.297941 0.692886
vt 0.297941 0.719982
vt 0.015328 0.685959
vt 0.297647 0.685959
vt 0.015622 0.679031
vt 0.297941 0.679032
vt 0.015622 0.801056
vt 0.297941 0.801055
vt 0.698406 0.660158
vt 0.698407 0.377837
vt 0.714679 0.863942
vt 0.726797 0.876693
vt 0.709442 0.887991
vt 0.698915 0.869149
vt 0.725817 0.729000
vt 0.725544 0.808680
vt 0.716534 0.834073
vt 0.718618 0.724168
vt 0.737152 0.719440
vt 0.731245 0.711980
vt 0.875547 0.726121
vt 0.865179 0.717907
vt 0.870241 0.711094
vt 0.881964 0.721627
vt 0.732399 0.838910
vt 0.737152 0.844801
vt 0.862859 0.834793
vt 0.874180 0.871650
vt 0.034591 0.831711
vt 0.053853 0.832684
vt 0.053849 0.943631
vt 0.053853 0.978773
vt 0.034591 0.984672
vt 0.015329 0.978773
vt 0.015332 0.943632
vt 0.015328 0.832684
vt 0.906940 0.860688
vt 0.895671 0.884166
vt 0.906940 0.822083
vt 0.696123 0.834154
vt 0.700478 0.718245
vt 0.712766 0.698406
vt 0.886112 0.698406
vt 0.897770 0.715437
vn 1.0000 0.0000 0.0000
vn -0.0000 0.5898 0.8075
vn 0.2147 0.5761 0.7887
vn 0.9683 -0.2473 -0.0354
vn 0.9643 -0.2599 -0.0512
vn 0.9538 -0.2877 -0.0866
vn 0.9404 -0.3110 -0.1373
vn 0.9020 -0.3433 -0.2619
vn -0.0863 -0.8045 0.5876
vn -0.0565 -0.7916 0.6085
vn -0.0449 -0.7862 0.6163
vn 0.0565 -0.7916 0.6085
vn 0.0863 -0.8045 0.5876
vn 0.0449 -0.7862 0.6163
vn 0.8763 -0.3528 -0.3279
vn 0.8226 -0.3497 -0.4484
vn 0.8078 -0.3480 -0.4758
vn -1.0000 0.0000 0.0000
vn -0.2147 0.5761 0.7887
vn -0.9683 -0.2473 -0.0354
vn -0.9538 -0.2877 -0.0866
vn -0.9643 -0.2599 -0.0512
vn -0.9020 -0.3433 -0.2619
vn -0.9404 -0.3110 -0.1373
vn 0.0000 -0.7737 0.6335
vn -0.8226 -0.3497 -0.4484
vn -0.8763 -0.3528 -0.3279
vn -0.8078 -0.3480 -0.4758
vn 0.4714 -0.5202 -0.7122
vn -0.0504 0.5891 0.8065
vn 0.0877 0.5875 0.8044
vn 0.0735 -0.8180 0.5705
vn 0.0661 -0.8254 0.5607
vn -0.0000 -0.8395 0.5433
vn -0.0735 -0.8180 0.5705
vn -0.0661 -0.8254 0.5607
vn -0.4714 -0.5202 -0.7122
vn -0.0877 0.5875 0.8044
vn -0.0000 0.8060 -0.5919
vn -0.0049 0.8070 -0.5905
vn -0.0115 0.8062 -0.5915
vn -0.0052 0.8082 -0.5889
vn -0.0000 0.8091 -0.5876
vn -0.0094 0.8087 -0.5881
vn -0.0000 0.8075 -0.5898
vn 0.0052 0.8082 -0.5889
vn 0.0094 0.8087 -0.5881
vn 0.0049 0.8070 -0.5905
vn 0.0115 0.8062 -0.5915
vn -0.2583 -0.8246 0.5033
vn -0.6446 -0.6225 0.4439
vn -0.3880 -0.7701 0.5063
vn -0.1449 -0.8611 0.4873
vn -0.9868 -0.0954 -0.1306
vn 0.9868 -0.0954 -0.1306
vn 0.8161 -0.3408 -0.4666
vn 0.8207 -0.3370 -0.4614
vn 0.6221 -0.4618 -0.6323
vn -0.6221 -0.4618 -0.6323
vn -0.8161 -0.3408 -0.4666
vn -0.8207 -0.3370 -0.4614
vn 0.0504 0.5891 0.8065
vn 0.2928 -0.5640 -0.7722
vn 0.0000 -0.5898 -0.8075
vn 0.6961 -0.5798 0.4235
vn 0.6446 -0.6225 0.4439
vn 0.3880 -0.7701 0.5063
vn 0.0000 -0.3569 0.9341
vn 0.0450 -0.3565 0.9332
vn -0.0450 -0.3565 0.9332
vn -0.6961 -0.5798 0.4235
vn 0.2583 -0.8246 0.5033
vn 0.1449 -0.8611 0.4873
vn 0.0000 -0.8787 0.4773
vn -0.2928 -0.5640 -0.7722
vn -0.0504 0.5890 0.8065
usemtl Material.006
s 1
f 9/1/1 5/2/1 6/3/1 7/4/1
f 1/5/1 9/1/1 7/4/1 8/6/1
f 2/7/1 3/8/1 9/1/1 1/5/1
f 3/8/1 4/9/1 5/2/1 9/1/1
f 14/10/2 11/11/3 4/12/3 3/13/3
f 11/14/4 16/15/5 5/16/6 4/17/4
f 10/18/2 14/10/2 3/13/3 2/19/3
f 16/15/5 13/20/7 6/21/8 5/16/6
f 18/22/9 19/23/10 34/24/11 33/25/9
f 2/26/12 1/27/13 30/28/13 31/29/14
f 13/20/7 15/30/15 7/31/16 6/21/8
f 15/30/15 12/32/17 8/33/17 7/31/16
f 17/34/1 16/35/1 13/36/1 15/37/1
f 14/38/1 11/39/1 16/35/1 17/34/1
f 26/40/18 24/41/18 23/42/18 22/43/18
f 18/44/18 25/45/18 24/41/18 26/40/18
f 19/46/18 18/44/18 26/40/18 20/47/18
f 20/47/18 26/40/18 22/43/18 21/48/18
f 14/10/2 20/49/19 21/50/19 11/51/19
f 11/52/20 21/53/20 22/54/21 16/55/22
f 10/18/2 19/56/19 20/49/19 14/10/2
f 16/55/22 22/54/21 23/57/23 13/58/24
f 19/23/10 10/59/25 28/60/25 34/24/11
f 10/59/25 2/26/12 31/29/14 28/60/25
f 13/58/24 23/57/23 24/61/26 15/30/27
f 15/30/27 24/61/26 25/62/28 12/32/28
f 32/63/29 29/64/29 44/65/29 43/66/29
f 41/67/30 38/68/2 54/69/2 57/70/30
f 28/71/2 31/72/31 45/73/31 46/74/2
f 35/75/18 33/76/18 48/77/18 50/78/18
f 1/27/13 8/79/32 32/80/33 30/28/13
f 8/79/32 12/81/34 29/82/34 32/80/33
f 12/81/34 25/83/35 35/84/36 29/82/34
f 25/83/35 18/22/9 33/25/9 35/84/36
f 30/85/1 32/63/1 43/66/1 47/86/1
f 31/72/1 30/85/1 47/86/1 45/73/1
f 29/64/37 35/75/37 50/78/37 44/65/37
f 34/87/38 28/71/2 46/74/2 49/88/38
f 33/76/18 34/87/18 49/88/18 48/77/18
f 39/89/39 37/90/40 43/91/41 44/92/39
f 36/93/42 38/94/43 46/95/43 45/96/44
f 37/90/40 27/97/45 47/98/45 43/91/41
f 27/97/45 36/93/42 45/96/44 47/98/45
f 41/99/46 40/100/45 48/101/45 49/102/47
f 40/100/45 42/103/48 50/104/49 48/101/45
f 38/94/43 41/99/46 49/102/47 46/95/43
f 42/103/48 39/89/39 44/92/39 50/104/49
f 58/105/50 56/106/51 64/107/52 66/108/53
f 40/109/54 41/110/18 57/111/18 56/112/54
f 27/113/55 37/114/56 51/115/57 55/116/55
f 37/114/56 39/117/58 52/118/58 51/115/57
f 39/117/59 42/119/60 58/120/61 52/118/59
f 42/119/60 40/109/54 56/112/54 58/120/61
f 36/121/1 27/113/55 55/116/55 53/122/1
f 38/68/2 36/123/62 53/124/62 54/69/2
f 59/125/63 60/126/64 68/127/64 67/128/63
f 53/129/65 55/130/66 63/131/67 61/132/65
f 54/133/68 53/129/69 61/132/69 62/134/68
f 57/135/70 54/136/68 62/137/68 65/138/70
f 56/106/51 57/135/71 65/138/71 64/107/52
f 55/130/66 51/139/72 59/125/73 63/131/67
f 51/139/72 52/140/74 60/126/74 59/125/73
f 52/141/74 58/105/50 66/108/53 60/142/74
f 70/143/45 69/144/45 71/145/45 67/146/45 68/147/45 74/148/45 72/149/45 73/150/45
f 60/142/64 66/108/75 74/151/75 68/152/64
f 66/108/18 64/107/18 72/153/18 74/151/18
f 61/132/1 63/131/1 71/154/1 69/155/1
f 62/134/2 61/132/62 69/155/62 70/156/2
f 65/138/76 62/137/2 70/157/2 73/158/76
f 64/107/18 65/138/18 73/158/18 72/153/18
f 63/131/1 59/125/1 67/128/1 71/154/1
